<svg width="18" height="18" viewBox="0 0 18 18" fill="none" xmlns="http://www.w3.org/2000/svg">
<g clip-path="url(#clip0_13244_4667)">
<path fill-rule="evenodd" clip-rule="evenodd" d="M14.5 0L18 3.5H14.5V0ZM5.5 10C4.12 10 3 11.12 3 12.5C3 13.88 4.12 15 5.5 15C6.88 15 8 13.88 8 12.5C8 11.12 6.88 10 5.5 10ZM13 0V5H18V16H11.33C11.95 14.98 12.3 13.78 12.3 12.5C12.3 8.74 9.26 5.7 5.5 5.7C4.98 5.7 4.48 5.76 4 5.87V0H13ZM6.33 7L6.73 7.99C7.08 8.09 7.43 8.22 7.75 8.4L7.82 8.44L8.81 8.02L9.98 9.19L9.56 10.18C9.74 10.5 9.89 10.85 9.99 11.2L10.01 11.28L11 11.68V13.33L10.01 13.73C9.91 14.08 9.78 14.43 9.6 14.75L9.56 14.82L9.98 15.81L8.81 16.98L7.82 16.56C7.5 16.75 7.15 16.89 6.8 16.99L6.72 17.01L6.32 18H4.67L4.27 17.01C3.92 16.91 3.57 16.78 3.25 16.6L3.18 16.56L2.19 16.98L1.02 15.81L1.44 14.82C1.25 14.5 1.11 14.15 1.01 13.8L0.99 13.72L0 13.32V11.67L0.99 11.27C1.09 10.92 1.22 10.57 1.4 10.25L1.44 10.18L1.02 9.19L2.19 8.02L3.18 8.44C3.5 8.26 3.85 8.11 4.2 8.01L4.28 7.99L4.68 7H6.33Z" fill="currentColor"/>
</g>
<defs>
<clipPath id="clip0_13244_4667">
<rect width="18" height="18" fill="white"/>
</clipPath>
</defs>
</svg>
