<svg width="18" height="18" viewBox="0 0 18 18" fill="none" xmlns="http://www.w3.org/2000/svg">
<path d="M4.19243 5.78922H0.573382C0.410116 5.78922 0.287667 5.92527 0.287667 6.07493V17.6804C0.287667 17.8436 0.423722 17.9661 0.573382 17.9661H4.19243C4.35569 17.9661 4.47814 17.83 4.47814 17.6804V6.07493C4.47814 5.91166 4.34209 5.78922 4.19243 5.78922ZM2.38291 0.0205078C1.07678 0.0205078 0.00195312 1.09534 0.00195312 2.40146C0.00195312 3.70758 1.07678 4.78241 2.38291 4.78241C3.68903 4.78241 4.76386 3.70758 4.76386 2.40146C4.76386 1.08173 3.68903 0.0205078 2.38291 0.0205078ZM13.3761 5.5035C11.9203 5.5035 10.8455 6.12935 10.206 6.83684V6.08854C10.206 5.92527 10.07 5.80282 9.92032 5.80282H6.46454C6.30127 5.80282 6.17882 5.93888 6.17882 6.08854V17.694C6.17882 17.8572 6.31488 17.9797 6.46454 17.9797H10.07C10.2332 17.9797 10.3557 17.8436 10.3557 17.694V11.9525C10.3557 10.0205 10.8863 9.2586 12.2332 9.2586C13.7026 9.2586 13.8251 10.4695 13.8251 12.0477V17.694C13.8251 17.8572 13.9611 17.9797 14.1108 17.9797H17.7162C17.8795 17.9797 18.002 17.8436 18.002 17.694V11.3266C18.002 8.44228 17.4577 5.5035 13.3897 5.5035H13.3761Z" fill="currentColor"/>
</svg>
